<?xml version="1.0" encoding="UTF-8"?>
<svg id="Layer_1" data-name="Layer 1" xmlns="http://www.w3.org/2000/svg" viewBox="0 0 283.46 283.46">
  <defs>
    <style>
      .cls-1 {
        fill: none;
        stroke: #00a0a0;
        stroke-linecap: round;
        stroke-linejoin: round;
        stroke-width: 9px;
      }

      .cls-2 {
        fill: #fff;
        stroke-width: 0px;
      }
    </style>
  </defs>
  <circle class="cls-2" cx="141.73" cy="141.73" r="141.73"/>
  <g>
    <g>
      <path class="cls-1" d="m235.61,75.22c-5.88-4.86-12.81-4.78-19.69-3.68-17.33,2.77-31.33,11.85-43.84,23.7-11.82,11.19-20.32,24.53-25.71,39.79-2.62,7.4-4.41,15.06-4.56,23.07-.17,9.09.16,18.02,3.43,26.68,5.68,15.04,16.31,24.26,31.96,27.65,9.83,2.13,19.65,1.66,29.56.09,12.54-1.99,24.46-5.67,35.63-11.65,4.66-2.49,9.1-5.4,12.24-9.82,3.21-4.52,2.75-10.09-.99-14.28-4.93-5.53-11.35-8.59-18.04-11.15-7.15-2.73-14.66-5.38-22.13-6.99-.7-.15-6.13-1.51-8.42-1.54"/>
      <path class="cls-1" d="m276.37,142.13c-9.62,2.04-19.23,4.16-28.88,6.09-8.01,1.6-16.07,2.97-24.11,4.44-3.63.67-6.91,1.47-10.49,2.33-1.12.27-7.85,2.09-7.85,2.09"/>
    </g>
    <g>
      <path class="cls-1" d="m33.79,90.16c.1.71,4.05,68.3,4.61,75.6.5,6.5,2.54,40.84,2.41,44.62"/>
      <path class="cls-1" d="m44.02,188.19s18.98-.3,20.51-.21c5.66.36,11.21,1.33,16.78,2.4,9.37,1.81,18.48,4.42,27.43,7.67,9.3,3.38,18.37,7.31,27.44,11.27,4.98,2.18,10.02,4.22,15.23,5.84"/>
      <path class="cls-1" d="m39.88,188.71c3.7-.38,16.28-2.21,21.6-3.44,4.19-.97,8.75-2.85,12.3-4.59,15.04-7.36,26.54-17.8,37.63-30.23,8.07-9.05,14.53-19.2,18.12-31.01,1.7-5.61,3.12-11.26,2.93-17.09-.5-15.02-7.28-26.34-22.81-31.39-7.53-2.45-15.24-2.97-23.17-2.53-22.24,1.25-41.5,9.83-58.8,23.29-6.52,5.08-12.12,11.11-16.54,18.22-2.95,4.75-4.97,9.57-3.62,15.27"/>
    </g>
  </g>
</svg>